<mxfile host="Electron" modified="2024-04-24T09:16:10.849Z" agent="Mozilla/5.0 (Windows NT 10.0; Win64; x64) AppleWebKit/537.36 (KHTML, like Gecko) draw.io/24.2.5 Chrome/120.0.6099.109 Electron/28.1.0 Safari/537.36" etag="uZXgzk4F0UX6YLHMbAPV" version="24.2.5" type="device">
  <diagram id="C5RBs43oDa-KdzZeNtuy" name="Page-1">
    <mxGraphModel dx="1036" dy="1783" grid="1" gridSize="10" guides="1" tooltips="1" connect="1" arrows="1" fold="1" page="1" pageScale="1" pageWidth="827" pageHeight="1169" math="0" shadow="0">
      <root>
        <mxCell id="WIyWlLk6GJQsqaUBKTNV-0" />
        <mxCell id="WIyWlLk6GJQsqaUBKTNV-1" parent="WIyWlLk6GJQsqaUBKTNV-0" />
        <mxCell id="B4a7mHJ0amXfzijbApyX-26" value="" style="rounded=0;whiteSpace=wrap;html=1;" vertex="1" parent="WIyWlLk6GJQsqaUBKTNV-1">
          <mxGeometry x="440" y="-520" width="350" height="340" as="geometry" />
        </mxCell>
        <mxCell id="JZAef9PKzk7lq3wsr4PK-3" value="List" style="swimlane;fontStyle=0;childLayout=stackLayout;horizontal=1;startSize=30;horizontalStack=0;resizeParent=1;resizeParentMax=0;resizeLast=0;collapsible=1;marginBottom=0;whiteSpace=wrap;html=1;" parent="WIyWlLk6GJQsqaUBKTNV-1" vertex="1">
          <mxGeometry x="20" y="-1120" width="280" height="670" as="geometry">
            <mxRectangle x="40" y="-1120" width="60" height="30" as="alternateBounds" />
          </mxGeometry>
        </mxCell>
        <mxCell id="JZAef9PKzk7lq3wsr4PK-6" value="+ List()" style="text;strokeColor=none;fillColor=none;align=left;verticalAlign=middle;spacingLeft=4;spacingRight=4;overflow=hidden;points=[[0,0.5],[1,0.5]];portConstraint=eastwest;rotatable=0;whiteSpace=wrap;html=1;" parent="JZAef9PKzk7lq3wsr4PK-3" vertex="1">
          <mxGeometry y="30" width="280" height="30" as="geometry" />
        </mxCell>
        <mxCell id="B4a7mHJ0amXfzijbApyX-42" value="+ List(const T* dataArray, size_t sizeOfArray)" style="text;strokeColor=none;fillColor=none;align=left;verticalAlign=middle;spacingLeft=4;spacingRight=4;overflow=hidden;points=[[0,0.5],[1,0.5]];portConstraint=eastwest;rotatable=0;whiteSpace=wrap;html=1;" vertex="1" parent="JZAef9PKzk7lq3wsr4PK-3">
          <mxGeometry y="60" width="280" height="30" as="geometry" />
        </mxCell>
        <mxCell id="JZAef9PKzk7lq3wsr4PK-7" value="+ List(list : const List&amp;amp;)" style="text;strokeColor=none;fillColor=none;align=left;verticalAlign=middle;spacingLeft=4;spacingRight=4;overflow=hidden;points=[[0,0.5],[1,0.5]];portConstraint=eastwest;rotatable=0;whiteSpace=wrap;html=1;" parent="JZAef9PKzk7lq3wsr4PK-3" vertex="1">
          <mxGeometry y="90" width="280" height="30" as="geometry" />
        </mxCell>
        <mxCell id="JZAef9PKzk7lq3wsr4PK-8" value="+ ~List()" style="text;strokeColor=none;fillColor=none;align=left;verticalAlign=middle;spacingLeft=4;spacingRight=4;overflow=hidden;points=[[0,0.5],[1,0.5]];portConstraint=eastwest;rotatable=0;whiteSpace=wrap;html=1;" parent="JZAef9PKzk7lq3wsr4PK-3" vertex="1">
          <mxGeometry y="120" width="280" height="30" as="geometry" />
        </mxCell>
        <mxCell id="JZAef9PKzk7lq3wsr4PK-10" value="+ at(idx : size_t) const : const T&amp;amp;" style="text;strokeColor=none;fillColor=none;align=left;verticalAlign=middle;spacingLeft=4;spacingRight=4;overflow=hidden;points=[[0,0.5],[1,0.5]];portConstraint=eastwest;rotatable=0;whiteSpace=wrap;html=1;" parent="JZAef9PKzk7lq3wsr4PK-3" vertex="1">
          <mxGeometry y="150" width="280" height="30" as="geometry" />
        </mxCell>
        <mxCell id="JZAef9PKzk7lq3wsr4PK-12" value="+ at(idx : size_t) : T&amp;amp;" style="text;strokeColor=none;fillColor=none;align=left;verticalAlign=middle;spacingLeft=4;spacingRight=4;overflow=hidden;points=[[0,0.5],[1,0.5]];portConstraint=eastwest;rotatable=0;whiteSpace=wrap;html=1;" parent="JZAef9PKzk7lq3wsr4PK-3" vertex="1">
          <mxGeometry y="180" width="280" height="30" as="geometry" />
        </mxCell>
        <mxCell id="JZAef9PKzk7lq3wsr4PK-13" value="+ push_front(data : const T&amp;amp;) : void" style="text;strokeColor=none;fillColor=none;align=left;verticalAlign=middle;spacingLeft=4;spacingRight=4;overflow=hidden;points=[[0,0.5],[1,0.5]];portConstraint=eastwest;rotatable=0;whiteSpace=wrap;html=1;" parent="JZAef9PKzk7lq3wsr4PK-3" vertex="1">
          <mxGeometry y="210" width="280" height="30" as="geometry" />
        </mxCell>
        <mxCell id="JZAef9PKzk7lq3wsr4PK-14" value="+ push_back(data : const T&amp;amp;) : void" style="text;strokeColor=none;fillColor=none;align=left;verticalAlign=middle;spacingLeft=4;spacingRight=4;overflow=hidden;points=[[0,0.5],[1,0.5]];portConstraint=eastwest;rotatable=0;whiteSpace=wrap;html=1;" parent="JZAef9PKzk7lq3wsr4PK-3" vertex="1">
          <mxGeometry y="240" width="280" height="30" as="geometry" />
        </mxCell>
        <mxCell id="JZAef9PKzk7lq3wsr4PK-15" value="+ push_at(data : const T&amp;amp;, idx : size_t) : void" style="text;strokeColor=none;fillColor=none;align=left;verticalAlign=middle;spacingLeft=4;spacingRight=4;overflow=hidden;points=[[0,0.5],[1,0.5]];portConstraint=eastwest;rotatable=0;whiteSpace=wrap;html=1;" parent="JZAef9PKzk7lq3wsr4PK-3" vertex="1">
          <mxGeometry y="270" width="280" height="30" as="geometry" />
        </mxCell>
        <mxCell id="JZAef9PKzk7lq3wsr4PK-17" value="+ clear() : void" style="text;strokeColor=none;fillColor=none;align=left;verticalAlign=middle;spacingLeft=4;spacingRight=4;overflow=hidden;points=[[0,0.5],[1,0.5]];portConstraint=eastwest;rotatable=0;whiteSpace=wrap;html=1;" parent="JZAef9PKzk7lq3wsr4PK-3" vertex="1">
          <mxGeometry y="300" width="280" height="30" as="geometry" />
        </mxCell>
        <mxCell id="B4a7mHJ0amXfzijbApyX-47" value="" style="endArrow=none;dashed=1;html=1;dashPattern=1 3;strokeWidth=2;rounded=0;entryX=1;entryY=-0.011;entryDx=0;entryDy=0;entryPerimeter=0;exitX=0;exitY=0;exitDx=0;exitDy=0;exitPerimeter=0;" edge="1" parent="JZAef9PKzk7lq3wsr4PK-3">
          <mxGeometry width="50" height="50" relative="1" as="geometry">
            <mxPoint y="330" as="sourcePoint" />
            <mxPoint x="280" y="330" as="targetPoint" />
          </mxGeometry>
        </mxCell>
        <mxCell id="JZAef9PKzk7lq3wsr4PK-18" value="+ delete_duplicates(&lt;div&gt;&lt;span style=&quot;white-space: pre;&quot;&gt;&#x9;&lt;/span&gt;Cmp cmp = Compare::DefaultEqual&amp;lt;T&amp;gt;()&lt;span style=&quot;background-color: initial;&quot;&gt;)&lt;/span&gt;&lt;/div&gt;&lt;div&gt;&lt;span style=&quot;background-color: initial;&quot;&gt;&lt;span style=&quot;white-space: pre;&quot;&gt;&#x9;&lt;/span&gt;: void&lt;/span&gt;&lt;/div&gt;" style="text;strokeColor=none;fillColor=none;align=left;verticalAlign=middle;spacingLeft=4;spacingRight=4;overflow=hidden;points=[[0,0.5],[1,0.5]];portConstraint=eastwest;rotatable=0;whiteSpace=wrap;html=1;" parent="JZAef9PKzk7lq3wsr4PK-3" vertex="1">
          <mxGeometry y="330" width="280" height="50" as="geometry" />
        </mxCell>
        <mxCell id="B4a7mHJ0amXfzijbApyX-46" value="" style="endArrow=none;dashed=1;html=1;dashPattern=1 3;strokeWidth=2;rounded=0;entryX=1;entryY=-0.011;entryDx=0;entryDy=0;entryPerimeter=0;exitX=0;exitY=0;exitDx=0;exitDy=0;exitPerimeter=0;" edge="1" parent="JZAef9PKzk7lq3wsr4PK-3">
          <mxGeometry width="50" height="50" relative="1" as="geometry">
            <mxPoint y="380" as="sourcePoint" />
            <mxPoint x="280" y="380" as="targetPoint" />
          </mxGeometry>
        </mxCell>
        <mxCell id="JZAef9PKzk7lq3wsr4PK-19" value="+ sort(&lt;div&gt;&lt;span style=&quot;white-space: pre;&quot;&gt;&#x9;&lt;/span&gt;Cmp cmp = Compare::DefaultBigger&amp;lt;T&amp;gt;()&lt;span style=&quot;background-color: initial;&quot;&gt;)&lt;/span&gt;&lt;/div&gt;&lt;div&gt;&lt;span style=&quot;background-color: initial;&quot;&gt;&amp;nbsp;&lt;span style=&quot;white-space: pre;&quot;&gt;&#x9;&lt;/span&gt;: void&lt;/span&gt;&lt;/div&gt;" style="text;strokeColor=none;fillColor=none;align=left;verticalAlign=middle;spacingLeft=4;spacingRight=4;overflow=hidden;points=[[0,0.5],[1,0.5]];portConstraint=eastwest;rotatable=0;whiteSpace=wrap;html=1;" parent="JZAef9PKzk7lq3wsr4PK-3" vertex="1">
          <mxGeometry y="380" width="280" height="50" as="geometry" />
        </mxCell>
        <mxCell id="JZAef9PKzk7lq3wsr4PK-20" value="+ get_length() const : size_t" style="text;strokeColor=none;fillColor=none;align=left;verticalAlign=middle;spacingLeft=4;spacingRight=4;overflow=hidden;points=[[0,0.5],[1,0.5]];portConstraint=eastwest;rotatable=0;whiteSpace=wrap;html=1;" parent="JZAef9PKzk7lq3wsr4PK-3" vertex="1">
          <mxGeometry y="430" width="280" height="30" as="geometry" />
        </mxCell>
        <mxCell id="JZAef9PKzk7lq3wsr4PK-22" value="+ operator[](idx : size_t) const : const T&amp;amp;" style="text;strokeColor=none;fillColor=none;align=left;verticalAlign=middle;spacingLeft=4;spacingRight=4;overflow=hidden;points=[[0,0.5],[1,0.5]];portConstraint=eastwest;rotatable=0;whiteSpace=wrap;html=1;" parent="JZAef9PKzk7lq3wsr4PK-3" vertex="1">
          <mxGeometry y="460" width="280" height="30" as="geometry" />
        </mxCell>
        <mxCell id="JZAef9PKzk7lq3wsr4PK-23" value="+ operator[](idx : size_t) : T&amp;amp;" style="text;strokeColor=none;fillColor=none;align=left;verticalAlign=middle;spacingLeft=4;spacingRight=4;overflow=hidden;points=[[0,0.5],[1,0.5]];portConstraint=eastwest;rotatable=0;whiteSpace=wrap;html=1;" parent="JZAef9PKzk7lq3wsr4PK-3" vertex="1">
          <mxGeometry y="490" width="280" height="30" as="geometry" />
        </mxCell>
        <mxCell id="B4a7mHJ0amXfzijbApyX-2" value="+ begin() const : Iterator&amp;nbsp;&amp;nbsp;" style="text;strokeColor=none;fillColor=none;align=left;verticalAlign=middle;spacingLeft=4;spacingRight=4;overflow=hidden;points=[[0,0.5],[1,0.5]];portConstraint=eastwest;rotatable=0;whiteSpace=wrap;html=1;" vertex="1" parent="JZAef9PKzk7lq3wsr4PK-3">
          <mxGeometry y="520" width="280" height="30" as="geometry" />
        </mxCell>
        <mxCell id="B4a7mHJ0amXfzijbApyX-0" value="+ end() const : Iterator" style="text;strokeColor=none;fillColor=none;align=left;verticalAlign=middle;spacingLeft=4;spacingRight=4;overflow=hidden;points=[[0,0.5],[1,0.5]];portConstraint=eastwest;rotatable=0;whiteSpace=wrap;html=1;" vertex="1" parent="JZAef9PKzk7lq3wsr4PK-3">
          <mxGeometry y="550" width="280" height="30" as="geometry" />
        </mxCell>
        <mxCell id="JZAef9PKzk7lq3wsr4PK-30" value="" style="endArrow=none;html=1;rounded=0;exitX=0;exitY=-0.008;exitDx=0;exitDy=0;exitPerimeter=0;entryX=0.999;entryY=1.006;entryDx=0;entryDy=0;entryPerimeter=0;" parent="JZAef9PKzk7lq3wsr4PK-3" source="JZAef9PKzk7lq3wsr4PK-26" target="B4a7mHJ0amXfzijbApyX-0" edge="1">
          <mxGeometry width="50" height="50" relative="1" as="geometry">
            <mxPoint x="2.1316282072803006e-14" y="510.00000000000006" as="sourcePoint" />
            <mxPoint x="263.9" y="511.3" as="targetPoint" />
          </mxGeometry>
        </mxCell>
        <mxCell id="JZAef9PKzk7lq3wsr4PK-26" value="- first : ListElement*" style="text;strokeColor=none;fillColor=none;align=left;verticalAlign=middle;spacingLeft=4;spacingRight=4;overflow=hidden;points=[[0,0.5],[1,0.5]];portConstraint=eastwest;rotatable=0;whiteSpace=wrap;html=1;" parent="JZAef9PKzk7lq3wsr4PK-3" vertex="1">
          <mxGeometry y="580" width="280" height="30" as="geometry" />
        </mxCell>
        <mxCell id="JZAef9PKzk7lq3wsr4PK-28" value="- last : ListElement*" style="text;strokeColor=none;fillColor=none;align=left;verticalAlign=middle;spacingLeft=4;spacingRight=4;overflow=hidden;points=[[0,0.5],[1,0.5]];portConstraint=eastwest;rotatable=0;whiteSpace=wrap;html=1;" parent="JZAef9PKzk7lq3wsr4PK-3" vertex="1">
          <mxGeometry y="610" width="280" height="30" as="geometry" />
        </mxCell>
        <mxCell id="JZAef9PKzk7lq3wsr4PK-29" value="- length : size_t" style="text;strokeColor=none;fillColor=none;align=left;verticalAlign=middle;spacingLeft=4;spacingRight=4;overflow=hidden;points=[[0,0.5],[1,0.5]];portConstraint=eastwest;rotatable=0;whiteSpace=wrap;html=1;" parent="JZAef9PKzk7lq3wsr4PK-3" vertex="1">
          <mxGeometry y="640" width="280" height="30" as="geometry" />
        </mxCell>
        <mxCell id="B4a7mHJ0amXfzijbApyX-4" value="" style="endArrow=none;html=1;rounded=0;entryX=1;entryY=0.999;entryDx=0;entryDy=0;entryPerimeter=0;exitX=0;exitY=0.004;exitDx=0;exitDy=0;exitPerimeter=0;" edge="1" parent="JZAef9PKzk7lq3wsr4PK-3" source="B4a7mHJ0amXfzijbApyX-2" target="JZAef9PKzk7lq3wsr4PK-23">
          <mxGeometry width="50" height="50" relative="1" as="geometry">
            <mxPoint x="110" y="509" as="sourcePoint" />
            <mxPoint x="259.7399999999999" y="479.06000000000006" as="targetPoint" />
          </mxGeometry>
        </mxCell>
        <mxCell id="B4a7mHJ0amXfzijbApyX-43" value="" style="endArrow=none;dashed=1;html=1;dashPattern=1 3;strokeWidth=2;rounded=0;entryX=1;entryY=-0.011;entryDx=0;entryDy=0;entryPerimeter=0;exitX=0;exitY=0;exitDx=0;exitDy=0;exitPerimeter=0;" edge="1" parent="JZAef9PKzk7lq3wsr4PK-3" source="JZAef9PKzk7lq3wsr4PK-20" target="JZAef9PKzk7lq3wsr4PK-20">
          <mxGeometry width="50" height="50" relative="1" as="geometry">
            <mxPoint x="-10" y="400" as="sourcePoint" />
            <mxPoint x="40" y="350" as="targetPoint" />
          </mxGeometry>
        </mxCell>
        <mxCell id="JZAef9PKzk7lq3wsr4PK-31" value="List::ListElement" style="swimlane;fontStyle=0;childLayout=stackLayout;horizontal=1;startSize=30;horizontalStack=0;resizeParent=1;resizeParentMax=0;resizeLast=0;collapsible=1;marginBottom=0;whiteSpace=wrap;html=1;" parent="WIyWlLk6GJQsqaUBKTNV-1" vertex="1">
          <mxGeometry x="650" y="-734" width="150" height="150" as="geometry" />
        </mxCell>
        <mxCell id="JZAef9PKzk7lq3wsr4PK-32" value="+ data : T" style="text;strokeColor=none;fillColor=none;align=left;verticalAlign=middle;spacingLeft=4;spacingRight=4;overflow=hidden;points=[[0,0.5],[1,0.5]];portConstraint=eastwest;rotatable=0;whiteSpace=wrap;html=1;" parent="JZAef9PKzk7lq3wsr4PK-31" vertex="1">
          <mxGeometry y="30" width="150" height="30" as="geometry" />
        </mxCell>
        <mxCell id="JZAef9PKzk7lq3wsr4PK-33" value="+ next : ListElement*&lt;span style=&quot;white-space: pre;&quot;&gt;&#x9;&lt;/span&gt;" style="text;strokeColor=none;fillColor=none;align=left;verticalAlign=middle;spacingLeft=4;spacingRight=4;overflow=hidden;points=[[0,0.5],[1,0.5]];portConstraint=eastwest;rotatable=0;whiteSpace=wrap;html=1;" parent="JZAef9PKzk7lq3wsr4PK-31" vertex="1">
          <mxGeometry y="60" width="150" height="30" as="geometry" />
        </mxCell>
        <mxCell id="JZAef9PKzk7lq3wsr4PK-34" value="+ prev : ListElement*" style="text;strokeColor=none;fillColor=none;align=left;verticalAlign=middle;spacingLeft=4;spacingRight=4;overflow=hidden;points=[[0,0.5],[1,0.5]];portConstraint=eastwest;rotatable=0;whiteSpace=wrap;html=1;" parent="JZAef9PKzk7lq3wsr4PK-31" vertex="1">
          <mxGeometry y="90" width="150" height="30" as="geometry" />
        </mxCell>
        <mxCell id="JZAef9PKzk7lq3wsr4PK-36" value="+ ListElement(data : T)" style="text;strokeColor=none;fillColor=none;align=left;verticalAlign=middle;spacingLeft=4;spacingRight=4;overflow=hidden;points=[[0,0.5],[1,0.5]];portConstraint=eastwest;rotatable=0;whiteSpace=wrap;html=1;" parent="JZAef9PKzk7lq3wsr4PK-31" vertex="1">
          <mxGeometry y="120" width="150" height="30" as="geometry" />
        </mxCell>
        <mxCell id="JZAef9PKzk7lq3wsr4PK-39" value="List::Iterator" style="swimlane;fontStyle=0;childLayout=stackLayout;horizontal=1;startSize=30;horizontalStack=0;resizeParent=1;resizeParentMax=0;resizeLast=0;collapsible=1;marginBottom=0;whiteSpace=wrap;html=1;" parent="WIyWlLk6GJQsqaUBKTNV-1" vertex="1">
          <mxGeometry x="420" y="-1120" width="240" height="330" as="geometry" />
        </mxCell>
        <mxCell id="JZAef9PKzk7lq3wsr4PK-40" value="+ Iterator()" style="text;strokeColor=none;fillColor=none;align=left;verticalAlign=middle;spacingLeft=4;spacingRight=4;overflow=hidden;points=[[0,0.5],[1,0.5]];portConstraint=eastwest;rotatable=0;whiteSpace=wrap;html=1;" parent="JZAef9PKzk7lq3wsr4PK-39" vertex="1">
          <mxGeometry y="30" width="240" height="30" as="geometry" />
        </mxCell>
        <mxCell id="JZAef9PKzk7lq3wsr4PK-41" value="+ Iterator(l : const List&amp;amp;)" style="text;strokeColor=none;fillColor=none;align=left;verticalAlign=middle;spacingLeft=4;spacingRight=4;overflow=hidden;points=[[0,0.5],[1,0.5]];portConstraint=eastwest;rotatable=0;whiteSpace=wrap;html=1;" parent="JZAef9PKzk7lq3wsr4PK-39" vertex="1">
          <mxGeometry y="60" width="240" height="30" as="geometry" />
        </mxCell>
        <mxCell id="JZAef9PKzk7lq3wsr4PK-42" value="+ operator++() : Iterator&amp;amp;" style="text;strokeColor=none;fillColor=none;align=left;verticalAlign=middle;spacingLeft=4;spacingRight=4;overflow=hidden;points=[[0,0.5],[1,0.5]];portConstraint=eastwest;rotatable=0;whiteSpace=wrap;html=1;" parent="JZAef9PKzk7lq3wsr4PK-39" vertex="1">
          <mxGeometry y="90" width="240" height="30" as="geometry" />
        </mxCell>
        <mxCell id="JZAef9PKzk7lq3wsr4PK-45" value="+ operator--() : Iterator&amp;amp;" style="text;strokeColor=none;fillColor=none;align=left;verticalAlign=middle;spacingLeft=4;spacingRight=4;overflow=hidden;points=[[0,0.5],[1,0.5]];portConstraint=eastwest;rotatable=0;whiteSpace=wrap;html=1;" parent="JZAef9PKzk7lq3wsr4PK-39" vertex="1">
          <mxGeometry y="120" width="240" height="30" as="geometry" />
        </mxCell>
        <mxCell id="JZAef9PKzk7lq3wsr4PK-43" value="+ operator++(int) : Iterator" style="text;strokeColor=none;fillColor=none;align=left;verticalAlign=middle;spacingLeft=4;spacingRight=4;overflow=hidden;points=[[0,0.5],[1,0.5]];portConstraint=eastwest;rotatable=0;whiteSpace=wrap;html=1;" parent="JZAef9PKzk7lq3wsr4PK-39" vertex="1">
          <mxGeometry y="150" width="240" height="30" as="geometry" />
        </mxCell>
        <mxCell id="JZAef9PKzk7lq3wsr4PK-46" value="+ operator--(int) : Iterator" style="text;strokeColor=none;fillColor=none;align=left;verticalAlign=middle;spacingLeft=4;spacingRight=4;overflow=hidden;points=[[0,0.5],[1,0.5]];portConstraint=eastwest;rotatable=0;whiteSpace=wrap;html=1;" parent="JZAef9PKzk7lq3wsr4PK-39" vertex="1">
          <mxGeometry y="180" width="240" height="30" as="geometry" />
        </mxCell>
        <mxCell id="JZAef9PKzk7lq3wsr4PK-47" value="+ operator!=(i : const Iterator&amp;amp;) const : bool" style="text;strokeColor=none;fillColor=none;align=left;verticalAlign=middle;spacingLeft=4;spacingRight=4;overflow=hidden;points=[[0,0.5],[1,0.5]];portConstraint=eastwest;rotatable=0;whiteSpace=wrap;html=1;" parent="JZAef9PKzk7lq3wsr4PK-39" vertex="1">
          <mxGeometry y="210" width="240" height="30" as="geometry" />
        </mxCell>
        <mxCell id="JZAef9PKzk7lq3wsr4PK-48" value="+ operator*() : T&amp;amp;" style="text;strokeColor=none;fillColor=none;align=left;verticalAlign=middle;spacingLeft=4;spacingRight=4;overflow=hidden;points=[[0,0.5],[1,0.5]];portConstraint=eastwest;rotatable=0;whiteSpace=wrap;html=1;" parent="JZAef9PKzk7lq3wsr4PK-39" vertex="1">
          <mxGeometry y="240" width="240" height="30" as="geometry" />
        </mxCell>
        <mxCell id="JZAef9PKzk7lq3wsr4PK-49" value="+ operator-&amp;gt;() : T*" style="text;strokeColor=none;fillColor=none;align=left;verticalAlign=middle;spacingLeft=4;spacingRight=4;overflow=hidden;points=[[0,0.5],[1,0.5]];portConstraint=eastwest;rotatable=0;whiteSpace=wrap;html=1;" parent="JZAef9PKzk7lq3wsr4PK-39" vertex="1">
          <mxGeometry y="270" width="240" height="30" as="geometry" />
        </mxCell>
        <mxCell id="JZAef9PKzk7lq3wsr4PK-50" value="- current : ListElement*" style="text;strokeColor=white;fillColor=none;align=left;verticalAlign=middle;spacingLeft=4;spacingRight=4;overflow=hidden;points=[[0,0.5],[1,0.5]];portConstraint=eastwest;rotatable=0;whiteSpace=wrap;html=1;" parent="JZAef9PKzk7lq3wsr4PK-39" vertex="1">
          <mxGeometry y="300" width="240" height="30" as="geometry" />
        </mxCell>
        <mxCell id="JZAef9PKzk7lq3wsr4PK-66" value="" style="rhombus;whiteSpace=wrap;html=1;fill=true;fillColor=#ffffff;fillStyle=solid;" parent="WIyWlLk6GJQsqaUBKTNV-1" vertex="1">
          <mxGeometry x="300" y="-1110" width="20" height="10" as="geometry" />
        </mxCell>
        <mxCell id="JZAef9PKzk7lq3wsr4PK-67" value="" style="endArrow=none;html=1;rounded=0;exitX=1;exitY=0.5;exitDx=0;exitDy=0;entryX=0.5;entryY=0;entryDx=0;entryDy=0;" parent="WIyWlLk6GJQsqaUBKTNV-1" source="JZAef9PKzk7lq3wsr4PK-66" target="JZAef9PKzk7lq3wsr4PK-39" edge="1">
          <mxGeometry width="50" height="50" relative="1" as="geometry">
            <mxPoint x="420" y="-1150" as="sourcePoint" />
            <mxPoint x="470" y="-1200" as="targetPoint" />
            <Array as="points">
              <mxPoint x="360" y="-1105" />
              <mxPoint x="360" y="-1140" />
              <mxPoint x="540" y="-1140" />
            </Array>
          </mxGeometry>
        </mxCell>
        <mxCell id="JZAef9PKzk7lq3wsr4PK-69" value="" style="endArrow=none;html=1;rounded=0;exitX=0.334;exitY=-0.003;exitDx=0;exitDy=0;exitPerimeter=0;" parent="WIyWlLk6GJQsqaUBKTNV-1" source="JZAef9PKzk7lq3wsr4PK-31" edge="1">
          <mxGeometry width="50" height="50" relative="1" as="geometry">
            <mxPoint x="640" y="-720" as="sourcePoint" />
            <mxPoint x="360" y="-1110" as="targetPoint" />
            <Array as="points">
              <mxPoint x="700" y="-760" />
              <mxPoint x="620" y="-760" />
              <mxPoint x="620" y="-720" />
              <mxPoint x="360" y="-720" />
            </Array>
          </mxGeometry>
        </mxCell>
        <mxCell id="JZAef9PKzk7lq3wsr4PK-70" value="" style="rhombus;whiteSpace=wrap;html=1;fill=true;fillColor=#ffffff;fillStyle=solid;" parent="WIyWlLk6GJQsqaUBKTNV-1" vertex="1">
          <mxGeometry x="660" y="-1110" width="20" height="10" as="geometry" />
        </mxCell>
        <mxCell id="JZAef9PKzk7lq3wsr4PK-71" value="" style="endArrow=none;html=1;rounded=0;entryX=1;entryY=0.5;entryDx=0;entryDy=0;exitX=0.467;exitY=-0.001;exitDx=0;exitDy=0;exitPerimeter=0;" parent="WIyWlLk6GJQsqaUBKTNV-1" source="JZAef9PKzk7lq3wsr4PK-31" target="JZAef9PKzk7lq3wsr4PK-70" edge="1">
          <mxGeometry width="50" height="50" relative="1" as="geometry">
            <mxPoint x="640" y="-1020" as="sourcePoint" />
            <mxPoint x="690" y="-1070" as="targetPoint" />
            <Array as="points">
              <mxPoint x="720" y="-1105" />
            </Array>
          </mxGeometry>
        </mxCell>
        <mxCell id="JZAef9PKzk7lq3wsr4PK-72" value="T : class" style="rounded=0;whiteSpace=wrap;html=1;dashed=1;" parent="WIyWlLk6GJQsqaUBKTNV-1" vertex="1">
          <mxGeometry x="210" y="-1130" width="70" height="20" as="geometry" />
        </mxCell>
        <mxCell id="wA6CkFYy4BYR5VGPhH-i-0" value="TestClass" style="swimlane;fontStyle=0;childLayout=stackLayout;horizontal=1;startSize=30;horizontalStack=0;resizeParent=1;resizeParentMax=0;resizeLast=0;collapsible=1;marginBottom=0;whiteSpace=wrap;html=1;" parent="WIyWlLk6GJQsqaUBKTNV-1" vertex="1">
          <mxGeometry x="20" y="-440" width="350" height="440" as="geometry" />
        </mxCell>
        <mxCell id="wA6CkFYy4BYR5VGPhH-i-1" value="+ TestClass(&lt;div&gt;&lt;span style=&quot;white-space: pre;&quot;&gt;&#x9;&lt;/span&gt;number = 0 : int,&lt;/div&gt;&lt;div&gt;&lt;span style=&quot;white-space: pre;&quot;&gt;&#x9;&lt;/span&gt;boolean = true : bool&lt;span style=&quot;background-color: initial;&quot;&gt;)&lt;/span&gt;&lt;/div&gt;" style="text;strokeColor=none;fillColor=none;align=left;verticalAlign=middle;spacingLeft=4;spacingRight=4;overflow=hidden;points=[[0,0.5],[1,0.5]];portConstraint=eastwest;rotatable=0;whiteSpace=wrap;html=1;" parent="wA6CkFYy4BYR5VGPhH-i-0" vertex="1">
          <mxGeometry y="30" width="350" height="50" as="geometry" />
        </mxCell>
        <mxCell id="wA6CkFYy4BYR5VGPhH-i-2" value="+ TestClass(tc : const TestClass&amp;amp;)" style="text;strokeColor=none;fillColor=none;align=left;verticalAlign=middle;spacingLeft=4;spacingRight=4;overflow=hidden;points=[[0,0.5],[1,0.5]];portConstraint=eastwest;rotatable=0;whiteSpace=wrap;html=1;" parent="wA6CkFYy4BYR5VGPhH-i-0" vertex="1">
          <mxGeometry y="80" width="350" height="30" as="geometry" />
        </mxCell>
        <mxCell id="wA6CkFYy4BYR5VGPhH-i-3" value="+ operator=(tc : const TestClass&amp;amp;)" style="text;strokeColor=none;fillColor=none;align=left;verticalAlign=middle;spacingLeft=4;spacingRight=4;overflow=hidden;points=[[0,0.5],[1,0.5]];portConstraint=eastwest;rotatable=0;whiteSpace=wrap;html=1;" parent="wA6CkFYy4BYR5VGPhH-i-0" vertex="1">
          <mxGeometry y="110" width="350" height="30" as="geometry" />
        </mxCell>
        <mxCell id="wA6CkFYy4BYR5VGPhH-i-4" value="+ operator==(tc : const TestClass&amp;amp;) const : bool" style="text;strokeColor=none;fillColor=none;align=left;verticalAlign=middle;spacingLeft=4;spacingRight=4;overflow=hidden;points=[[0,0.5],[1,0.5]];portConstraint=eastwest;rotatable=0;whiteSpace=wrap;html=1;" parent="wA6CkFYy4BYR5VGPhH-i-0" vertex="1">
          <mxGeometry y="140" width="350" height="30" as="geometry" />
        </mxCell>
        <mxCell id="wA6CkFYy4BYR5VGPhH-i-5" value="+ operator&amp;gt;(tc : const TestClass&amp;amp;) const : bool" style="text;strokeColor=none;fillColor=none;align=left;verticalAlign=middle;spacingLeft=4;spacingRight=4;overflow=hidden;points=[[0,0.5],[1,0.5]];portConstraint=eastwest;rotatable=0;whiteSpace=wrap;html=1;" parent="wA6CkFYy4BYR5VGPhH-i-0" vertex="1">
          <mxGeometry y="170" width="350" height="30" as="geometry" />
        </mxCell>
        <mxCell id="wA6CkFYy4BYR5VGPhH-i-6" value="+ get_number() const : int" style="text;strokeColor=none;fillColor=none;align=left;verticalAlign=middle;spacingLeft=4;spacingRight=4;overflow=hidden;points=[[0,0.5],[1,0.5]];portConstraint=eastwest;rotatable=0;whiteSpace=wrap;html=1;" parent="wA6CkFYy4BYR5VGPhH-i-0" vertex="1">
          <mxGeometry y="200" width="350" height="30" as="geometry" />
        </mxCell>
        <mxCell id="wA6CkFYy4BYR5VGPhH-i-9" value="+ set_number(number : int) : void" style="text;strokeColor=none;fillColor=none;align=left;verticalAlign=middle;spacingLeft=4;spacingRight=4;overflow=hidden;points=[[0,0.5],[1,0.5]];portConstraint=eastwest;rotatable=0;whiteSpace=wrap;html=1;" parent="wA6CkFYy4BYR5VGPhH-i-0" vertex="1">
          <mxGeometry y="230" width="350" height="30" as="geometry" />
        </mxCell>
        <mxCell id="wA6CkFYy4BYR5VGPhH-i-7" value="+ get_boolean() const : bool" style="text;strokeColor=none;fillColor=none;align=left;verticalAlign=middle;spacingLeft=4;spacingRight=4;overflow=hidden;points=[[0,0.5],[1,0.5]];portConstraint=eastwest;rotatable=0;whiteSpace=wrap;html=1;" parent="wA6CkFYy4BYR5VGPhH-i-0" vertex="1">
          <mxGeometry y="260" width="350" height="30" as="geometry" />
        </mxCell>
        <mxCell id="wA6CkFYy4BYR5VGPhH-i-8" value="+ set_boolean(boolean : bool) void" style="text;strokeColor=none;fillColor=none;align=left;verticalAlign=middle;spacingLeft=4;spacingRight=4;overflow=hidden;points=[[0,0.5],[1,0.5]];portConstraint=eastwest;rotatable=0;whiteSpace=wrap;html=1;" parent="wA6CkFYy4BYR5VGPhH-i-0" vertex="1">
          <mxGeometry y="290" width="350" height="30" as="geometry" />
        </mxCell>
        <mxCell id="B4a7mHJ0amXfzijbApyX-40" value="+ read(path : const char*, datas : TestClass*) : (static) size_t&amp;nbsp;" style="text;strokeColor=none;fillColor=none;align=left;verticalAlign=middle;spacingLeft=4;spacingRight=4;overflow=hidden;points=[[0,0.5],[1,0.5]];portConstraint=eastwest;rotatable=0;whiteSpace=wrap;html=1;" vertex="1" parent="wA6CkFYy4BYR5VGPhH-i-0">
          <mxGeometry y="320" width="350" height="30" as="geometry" />
        </mxCell>
        <mxCell id="B4a7mHJ0amXfzijbApyX-41" value="+ write(path : const char*) const : void" style="text;strokeColor=none;fillColor=none;align=left;verticalAlign=middle;spacingLeft=4;spacingRight=4;overflow=hidden;points=[[0,0.5],[1,0.5]];portConstraint=eastwest;rotatable=0;whiteSpace=wrap;html=1;" vertex="1" parent="wA6CkFYy4BYR5VGPhH-i-0">
          <mxGeometry y="350" width="350" height="30" as="geometry" />
        </mxCell>
        <mxCell id="wA6CkFYy4BYR5VGPhH-i-10" value="- number : int" style="text;strokeColor=none;fillColor=none;align=left;verticalAlign=middle;spacingLeft=4;spacingRight=4;overflow=hidden;points=[[0,0.5],[1,0.5]];portConstraint=eastwest;rotatable=0;whiteSpace=wrap;html=1;" parent="wA6CkFYy4BYR5VGPhH-i-0" vertex="1">
          <mxGeometry y="380" width="350" height="30" as="geometry" />
        </mxCell>
        <mxCell id="wA6CkFYy4BYR5VGPhH-i-11" value="- boolean : bool" style="text;strokeColor=none;fillColor=none;align=left;verticalAlign=middle;spacingLeft=4;spacingRight=4;overflow=hidden;points=[[0,0.5],[1,0.5]];portConstraint=eastwest;rotatable=0;whiteSpace=wrap;html=1;" parent="wA6CkFYy4BYR5VGPhH-i-0" vertex="1">
          <mxGeometry y="410" width="350" height="30" as="geometry" />
        </mxCell>
        <mxCell id="wA6CkFYy4BYR5VGPhH-i-12" value="" style="endArrow=none;html=1;rounded=0;exitX=0;exitY=-0.001;exitDx=0;exitDy=0;exitPerimeter=0;entryX=1.001;entryY=0.002;entryDx=0;entryDy=0;entryPerimeter=0;" parent="wA6CkFYy4BYR5VGPhH-i-0" source="wA6CkFYy4BYR5VGPhH-i-10" target="wA6CkFYy4BYR5VGPhH-i-10" edge="1">
          <mxGeometry width="50" height="50" relative="1" as="geometry">
            <mxPoint x="200" y="330" as="sourcePoint" />
            <mxPoint x="250" y="280" as="targetPoint" />
          </mxGeometry>
        </mxCell>
        <mxCell id="B4a7mHJ0amXfzijbApyX-11" value="DefaultBigger" style="swimlane;fontStyle=0;childLayout=stackLayout;horizontal=1;startSize=30;horizontalStack=0;resizeParent=1;resizeParentMax=0;resizeLast=0;collapsible=1;marginBottom=0;whiteSpace=wrap;html=1;" vertex="1" parent="WIyWlLk6GJQsqaUBKTNV-1">
          <mxGeometry x="460" y="-420" width="230" height="60" as="geometry" />
        </mxCell>
        <mxCell id="B4a7mHJ0amXfzijbApyX-12" value="+ operator()(const T&amp;amp;, const T&amp;amp;) : bool" style="text;strokeColor=none;fillColor=none;align=left;verticalAlign=middle;spacingLeft=4;spacingRight=4;overflow=hidden;points=[[0,0.5],[1,0.5]];portConstraint=eastwest;rotatable=0;whiteSpace=wrap;html=1;" vertex="1" parent="B4a7mHJ0amXfzijbApyX-11">
          <mxGeometry y="30" width="230" height="30" as="geometry" />
        </mxCell>
        <mxCell id="B4a7mHJ0amXfzijbApyX-15" value="DefaultEqual" style="swimlane;fontStyle=0;childLayout=stackLayout;horizontal=1;startSize=30;horizontalStack=0;resizeParent=1;resizeParentMax=0;resizeLast=0;collapsible=1;marginBottom=0;whiteSpace=wrap;html=1;" vertex="1" parent="WIyWlLk6GJQsqaUBKTNV-1">
          <mxGeometry x="460" y="-500" width="230" height="60" as="geometry" />
        </mxCell>
        <mxCell id="B4a7mHJ0amXfzijbApyX-17" value="+ operator()(const T&amp;amp;, const T&amp;amp;) : bool" style="text;strokeColor=none;fillColor=none;align=left;verticalAlign=middle;spacingLeft=4;spacingRight=4;overflow=hidden;points=[[0,0.5],[1,0.5]];portConstraint=eastwest;rotatable=0;whiteSpace=wrap;html=1;" vertex="1" parent="B4a7mHJ0amXfzijbApyX-15">
          <mxGeometry y="30" width="230" height="30" as="geometry" />
        </mxCell>
        <mxCell id="B4a7mHJ0amXfzijbApyX-19" value="TestSortFunctor" style="swimlane;fontStyle=0;childLayout=stackLayout;horizontal=1;startSize=30;horizontalStack=0;resizeParent=1;resizeParentMax=0;resizeLast=0;collapsible=1;marginBottom=0;whiteSpace=wrap;html=1;" vertex="1" parent="WIyWlLk6GJQsqaUBKTNV-1">
          <mxGeometry x="460" y="-340" width="310" height="60" as="geometry" />
        </mxCell>
        <mxCell id="B4a7mHJ0amXfzijbApyX-20" value="operator()(const TestClass&amp;amp;, const TestClass&amp;amp;) : bool" style="text;strokeColor=none;fillColor=none;align=left;verticalAlign=middle;spacingLeft=4;spacingRight=4;overflow=hidden;points=[[0,0.5],[1,0.5]];portConstraint=eastwest;rotatable=0;whiteSpace=wrap;html=1;" vertex="1" parent="B4a7mHJ0amXfzijbApyX-19">
          <mxGeometry y="30" width="310" height="30" as="geometry" />
        </mxCell>
        <mxCell id="B4a7mHJ0amXfzijbApyX-23" value="TestEqualFunctor" style="swimlane;fontStyle=0;childLayout=stackLayout;horizontal=1;startSize=30;horizontalStack=0;resizeParent=1;resizeParentMax=0;resizeLast=0;collapsible=1;marginBottom=0;whiteSpace=wrap;html=1;" vertex="1" parent="WIyWlLk6GJQsqaUBKTNV-1">
          <mxGeometry x="460" y="-260" width="310" height="60" as="geometry" />
        </mxCell>
        <mxCell id="B4a7mHJ0amXfzijbApyX-24" value="operator()(const TestClass&amp;amp;, const TestClass&amp;amp;) : bool" style="text;strokeColor=none;fillColor=none;align=left;verticalAlign=middle;spacingLeft=4;spacingRight=4;overflow=hidden;points=[[0,0.5],[1,0.5]];portConstraint=eastwest;rotatable=0;whiteSpace=wrap;html=1;" vertex="1" parent="B4a7mHJ0amXfzijbApyX-23">
          <mxGeometry y="30" width="310" height="30" as="geometry" />
        </mxCell>
        <mxCell id="B4a7mHJ0amXfzijbApyX-29" value="Compare : namespace" style="rounded=0;whiteSpace=wrap;html=1;" vertex="1" parent="WIyWlLk6GJQsqaUBKTNV-1">
          <mxGeometry x="440" y="-560" width="350" height="40" as="geometry" />
        </mxCell>
        <mxCell id="B4a7mHJ0amXfzijbApyX-30" value="T : class" style="rounded=0;whiteSpace=wrap;html=1;dashed=1;" vertex="1" parent="WIyWlLk6GJQsqaUBKTNV-1">
          <mxGeometry x="650" y="-430" width="70" height="20" as="geometry" />
        </mxCell>
        <mxCell id="B4a7mHJ0amXfzijbApyX-33" value="T : class" style="rounded=0;whiteSpace=wrap;html=1;dashed=1;" vertex="1" parent="WIyWlLk6GJQsqaUBKTNV-1">
          <mxGeometry x="650" y="-510" width="70" height="20" as="geometry" />
        </mxCell>
        <mxCell id="B4a7mHJ0amXfzijbApyX-35" value="" style="rhombus;whiteSpace=wrap;html=1;fill=true;fillColor=#ffffff;fillStyle=solid;" vertex="1" parent="WIyWlLk6GJQsqaUBKTNV-1">
          <mxGeometry x="300" y="-770" width="20" height="10" as="geometry" />
        </mxCell>
        <mxCell id="B4a7mHJ0amXfzijbApyX-37" value="" style="rhombus;whiteSpace=wrap;html=1;fill=true;fillColor=#ffffff;fillStyle=solid;" vertex="1" parent="WIyWlLk6GJQsqaUBKTNV-1">
          <mxGeometry x="300" y="-720" width="20" height="10" as="geometry" />
        </mxCell>
        <mxCell id="B4a7mHJ0amXfzijbApyX-38" value="" style="endArrow=none;html=1;rounded=0;entryX=1;entryY=0.5;entryDx=0;entryDy=0;exitX=0;exitY=0.25;exitDx=0;exitDy=0;" edge="1" parent="WIyWlLk6GJQsqaUBKTNV-1" source="B4a7mHJ0amXfzijbApyX-15" target="B4a7mHJ0amXfzijbApyX-35">
          <mxGeometry width="50" height="50" relative="1" as="geometry">
            <mxPoint x="340" y="-670" as="sourcePoint" />
            <mxPoint x="340" y="-800" as="targetPoint" />
            <Array as="points">
              <mxPoint x="340" y="-485" />
              <mxPoint x="340" y="-765" />
            </Array>
          </mxGeometry>
        </mxCell>
        <mxCell id="B4a7mHJ0amXfzijbApyX-39" value="" style="endArrow=none;html=1;rounded=0;entryX=1;entryY=0.5;entryDx=0;entryDy=0;exitX=0;exitY=0.25;exitDx=0;exitDy=0;" edge="1" parent="WIyWlLk6GJQsqaUBKTNV-1" source="B4a7mHJ0amXfzijbApyX-11" target="B4a7mHJ0amXfzijbApyX-37">
          <mxGeometry width="50" height="50" relative="1" as="geometry">
            <mxPoint x="320" y="-500" as="sourcePoint" />
            <mxPoint x="330" y="-780" as="targetPoint" />
            <Array as="points">
              <mxPoint x="400" y="-405" />
              <mxPoint x="400" y="-460" />
              <mxPoint x="330" y="-460" />
              <mxPoint x="330" y="-715" />
            </Array>
          </mxGeometry>
        </mxCell>
      </root>
    </mxGraphModel>
  </diagram>
</mxfile>
